<?xml version="1.0" encoding="UTF-8" standalone="no"?>
<!-- Generator: Adobe Illustrator 26.0.3, SVG Export Plug-In . SVG Version: 6.00 Build 0)  -->

<svg
   version="1.0"
   id="Layer_1"
   x="0px"
   y="0px"
   viewBox="0 0 200 82.599996"
   xml:space="preserve"
   sodipodi:docname="Durham University.svg"
   width="200"
   height="82.599998"
   inkscape:version="1.3 (0e150ed6c4, 2023-07-21)"
   xmlns:inkscape="http://www.inkscape.org/namespaces/inkscape"
   xmlns:sodipodi="http://sodipodi.sourceforge.net/DTD/sodipodi-0.dtd"
   xmlns="http://www.w3.org/2000/svg"
   xmlns:svg="http://www.w3.org/2000/svg"><defs
   id="defs10" /><sodipodi:namedview
   id="namedview10"
   pagecolor="#ffffff"
   bordercolor="#000000"
   borderopacity="0.25"
   inkscape:showpageshadow="2"
   inkscape:pageopacity="0.0"
   inkscape:pagecheckerboard="0"
   inkscape:deskcolor="#d1d1d1"
   showgrid="false"
   inkscape:zoom="3.8837209"
   inkscape:cx="99.904192"
   inkscape:cy="41.068862"
   inkscape:window-width="1920"
   inkscape:window-height="1009"
   inkscape:window-x="-8"
   inkscape:window-y="-8"
   inkscape:window-maximized="1"
   inkscape:current-layer="Layer_1" />&#10;<style
   type="text/css"
   id="style1">&#10;	.st0{fill:#002337;}&#10;	.st1{fill:#702567;}&#10;</style>&#10;<path
   class="st0"
   d="m 166.1,82.6 c 2,0 3.2,-1 4.3,-3.7 l 5.4,-13.4 h -2.1 l -4.2,10.8 -4.7,-10.8 h -2.1 l 5.9,12.9 c -0.8,1.8 -1.5,2.4 -2.6,2.4 -0.7,0 -1.4,-0.1 -2,-0.5 l -0.6,1.5 c 0.8,0.6 1.7,0.8 2.7,0.8 m -7.3,-3.9 c 0.8,0 1.6,-0.2 2.3,-0.6 v -1.6 c -0.6,0.3 -1.2,0.5 -1.9,0.4 -1,0.2 -2,-0.6 -2.2,-1.6 0,-0.2 0,-0.4 0,-0.5 v -7.6 h 4.1 V 65.5 H 157 v -3.9 h -1.9 v 3.9 h -1.8 v 1.7 h 1.8 V 75 c 0,2.7 1.6,3.7 3.7,3.7 m -10.3,-0.2 h 1.9 v -13 h -1.9 z m -0.1,-15.8 h 2.2 v -2.1 h -2.2 z m -7.8,16 c 2.6,0 4.6,-1.4 4.6,-3.9 v -0.1 c 0,-2.3 -2.1,-3.1 -4.2,-3.7 -1.7,-0.5 -3.3,-1 -3.3,-2.2 v -0.1 c 0,-1.1 1,-1.9 2.5,-1.9 1.4,0 2.7,0.5 3.8,1.2 l 0.9,-1.4 c -1.4,-0.9 -3,-1.4 -4.7,-1.4 -2.6,0 -4.4,1.5 -4.4,3.7 v 0 c 0,2.4 2.2,3.1 4.3,3.7 1.7,0.5 3.2,1 3.2,2.3 v 0 c 0,1.3 -1.1,2.1 -2.7,2.1 -1.6,-0.1 -3.2,-0.6 -4.5,-1.6 l -1,1.4 c 1.5,1.2 3.4,1.9 5.4,1.9 m -13.9,-0.4 h 1.9 v -5 c 0,-3.9 2.3,-5.9 5.1,-5.9 h 0.1 v -2.1 c -2.4,0 -4.5,1.4 -5.3,3.6 v -3.4 h -1.9 z m -13.2,-7.2 c 0.3,-2.5 2,-4.4 4.2,-4.4 2.6,0 3.9,2 4.1,4.4 z m 0,1.5 h 10.3 c 0,-0.2 0,-0.5 0,-0.7 0,-3.8 -2.2,-6.9 -6.1,-6.9 -3.6,0 -6.2,3 -6.2,6.8 -0.2,3.6 2.6,6.6 6.1,6.8 0.1,0 0.2,0 0.3,0 2.1,0.1 4,-0.8 5.4,-2.4 l -1.1,-0.9 c -1,1.2 -2.5,1.8 -4.1,1.8 -2.4,0 -4.4,-1.9 -4.6,-4.3 m -10.2,5.8 h 1.7 l 5.6,-13.1 h -2.1 L 104,76.3 99.6,65.5 H 97.5 Z M 92.9,78.5 h 1.9 v -13 H 92.9 Z M 92.8,62.7 H 95 v -2.1 h -2.2 z m -15,15.8 h 1.9 v -7.4 c -0.1,-2.1 1.5,-3.9 3.6,-4.1 0.1,0 0.2,0 0.3,0 2.3,0 3.6,1.5 3.6,3.9 v 7.6 h 1.9 v -8 c 0,-3.1 -1.8,-5.2 -5,-5.2 -1.8,0 -3.5,0.9 -4.4,2.5 v -2.4 h -1.9 z m -11.2,0.3 c 4.4,0 7.3,-2.7 7.3,-7.8 V 60.9 H 72 v 10.2 c 0,3.8 -2.1,5.8 -5.3,5.8 -3.2,0 -5.4,-2.1 -5.4,-5.9 V 60.9 h -2 v 10.2 c 0,5 3,7.7 7.3,7.7"
   id="path1" />&#10;<path
   class="st0"
   d="m 176.4,53.4 v -1.6 h -0.1 c -0.7,0 -1.5,-0.1 -2.2,-0.4 -0.6,-0.3 -0.9,-1 -0.9,-2.1 v -8 c 0,-1 0.1,-2 0.4,-3 0.2,-0.9 0.7,-1.7 1.4,-2.3 0.7,-0.6 1.7,-0.9 2.6,-0.9 1.2,-0.1 2.4,0.4 3.1,1.4 0.7,1.2 1,2.5 0.9,3.8 v 13.1 h 6.6 v -1.6 h -0.1 c -0.7,0 -1.5,-0.2 -2.1,-0.5 -0.6,-0.3 -0.8,-1.1 -0.8,-2.3 v -8.3 c 0,-1 0.1,-1.9 0.4,-2.8 0.2,-0.8 0.7,-1.5 1.3,-2.1 0.7,-0.6 1.6,-0.8 2.5,-0.8 1.2,-0.1 2.4,0.4 3.1,1.4 0.7,1.2 1,2.5 0.9,3.8 v 13.1 h 6.6 v -1.6 h -0.1 c -0.7,0 -1.5,-0.1 -2.1,-0.5 -0.6,-0.3 -0.8,-1.1 -0.8,-2.3 v -9 c 0,-2.6 -0.6,-4.5 -1.6,-5.7 -1.2,-1.2 -2.8,-1.9 -4.5,-1.8 -1.1,0 -2.3,0.2 -3.3,0.7 -1.2,0.6 -2.1,1.6 -2.7,2.8 h -0.3 c -0.4,-1.1 -1.2,-2.1 -2.2,-2.7 -1,-0.5 -2.2,-0.8 -3.3,-0.8 -1.1,0 -2.2,0.2 -3.2,0.7 -1.1,0.6 -2,1.6 -2.6,2.8 h -0.2 l -0.5,-3.1 h -6 v 1.6 h 0.1 c 0.7,0 1.4,0.1 2.1,0.5 0.6,0.3 0.8,1 0.8,2.1 v 11.9 c 0,1.2 -0.3,1.9 -0.8,2.3 -0.7,0.3 -1.4,0.5 -2.1,0.5 h -0.5 v 1.6 z m -26.3,-5.5 c -0.1,-1.3 0.4,-2.5 1.2,-3.4 0.8,-0.8 2.3,-1.2 4.5,-1.3 l 2.4,-0.1 v 3.1 c 0.1,1.4 -0.4,2.8 -1.4,3.9 -1,1 -2.3,1.5 -3.7,1.4 -2,-0.1 -3,-1.2 -3,-3.6 m 4.8,5.4 c 0.7,-0.3 1.3,-0.7 1.8,-1.3 0.5,-0.6 1.1,-1.2 1.6,-1.9 h 0.3 l 0.6,3.3 h 5.1 v -1.6 h -0.1 c -0.7,0.1 -1.3,-0.1 -1.8,-0.6 -0.4,-0.6 -0.6,-1.4 -0.5,-2.2 v -9.8 c 0,-2.4 -0.6,-4.1 -1.7,-5.1 -1.5,-1.1 -3.4,-1.6 -5.2,-1.5 -1.2,0 -2.3,0.1 -3.4,0.4 -0.9,0.2 -1.8,0.6 -2.5,1.2 -0.6,0.5 -1,1.3 -0.9,2.1 -0.1,0.7 0.2,1.4 0.8,1.8 0.7,0.4 1.6,0.6 2.4,0.6 0,-0.7 0.1,-1.4 0.2,-2.1 0.1,-0.6 0.5,-1.1 1,-1.5 0.7,-0.4 1.4,-0.6 2.2,-0.5 0.8,-0.1 1.6,0.2 2.3,0.6 0.5,0.4 0.9,1 1,1.7 0.2,0.8 0.2,1.6 0.2,2.4 v 2.3 l -3.1,0.1 c -2.9,0.1 -5.1,0.6 -6.5,1.6 -1.5,1 -2.3,2.7 -2.1,4.5 -0.1,1.7 0.5,3.4 1.7,4.6 1.7,1.4 4.3,1.8 6.6,0.9 m -22.1,0.1 v -1.6 h -0.1 c -0.7,0 -1.5,-0.1 -2.2,-0.4 -0.6,-0.3 -0.9,-1 -0.9,-2.1 v -8 c -0.1,-1.6 0.3,-3.1 1.1,-4.5 0.8,-1.1 2.1,-1.8 3.5,-1.7 1.2,-0.1 2.5,0.4 3.2,1.4 0.7,1.2 1,2.5 0.9,3.8 v 13.1 h 6.6 v -1.6 h -0.1 c -0.7,0 -1.5,-0.1 -2.1,-0.5 -0.6,-0.3 -0.8,-1.1 -0.8,-2.3 v -9 c 0,-2.6 -0.6,-4.5 -1.7,-5.7 -1.4,-1.3 -3.2,-1.9 -5,-1.8 -2.4,-0.1 -4.6,1.3 -5.6,3.5 h -0.2 c 0,-0.7 0.1,-1.3 0.1,-1.8 0,-0.5 0,-1 0,-1.4 v -8.3 h -7 v 1.6 h 0.3 c 0.8,0 1.5,0.1 2.2,0.5 0.6,0.3 0.9,1 0.9,2.1 v 20.4 c 0,1.2 -0.3,1.9 -0.9,2.3 -0.7,0.3 -1.4,0.5 -2.2,0.5 h -0.3 v 1.6 z m -15.8,0 v -1.6 h -1.1 c -0.7,0 -1.5,-0.1 -2.2,-0.4 -0.6,-0.3 -0.9,-1 -0.9,-2.1 v -6 c 0,-0.8 0.1,-1.7 0.2,-2.5 0.1,-0.9 0.3,-1.8 0.6,-2.7 0.2,-0.8 0.6,-1.5 1.1,-2.1 0.4,-0.5 1.1,-0.8 1.8,-0.8 0.6,-0.1 1.2,0.2 1.6,0.7 0.4,0.7 0.5,1.5 0.5,2.3 1,0.1 1.9,-0.2 2.7,-0.8 0.5,-0.5 0.8,-1.2 0.8,-1.9 0,-0.8 -0.4,-1.5 -1,-2 -0.9,-0.5 -2,-0.8 -3.1,-0.7 -0.9,0 -1.8,0.1 -2.6,0.6 -0.6,0.4 -1.1,0.9 -1.5,1.5 -0.4,0.7 -0.8,1.4 -1.1,2.1 h -0.2 l -0.7,-3.8 H 106 v 1.6 h 0.1 c 0.8,0 1.5,0.1 2.2,0.5 0.6,0.3 0.9,1 0.9,2.1 v 11.9 c 0,1.2 -0.3,1.9 -0.9,2.3 -0.7,0.3 -1.4,0.5 -2.2,0.5 H 106 v 1.6 z M 95.2,53.1 c 1.2,-0.6 2.2,-1.6 2.7,-2.8 h 0.2 l 0.5,3.1 h 6 v -1.6 h -0.1 c -0.7,0 -1.5,-0.1 -2.2,-0.4 -0.6,-0.3 -0.9,-1 -0.9,-2.1 V 33.1 h -6.8 v 1.6 h 0.1 c 0.8,0 1.5,0.1 2.2,0.5 0.6,0.3 0.9,1.1 0.9,2.3 v 7.8 c 0.1,1.6 -0.3,3.1 -1.1,4.5 C 95.9,51 94.5,51.6 93,51.5 91.8,51.6 90.6,51.1 89.8,50.1 89.2,48.9 88.9,47.6 89,46.3 V 33.1 h -6.8 v 1.6 h 0.1 c 0.8,0 1.5,0.1 2.2,0.5 0.6,0.3 0.9,1 0.9,2.1 v 9.1 c 0,2.6 0.5,4.5 1.6,5.7 1.2,1.2 2.9,1.9 4.6,1.8 1.3,-0.1 2.5,-0.3 3.6,-0.8 M 63.4,28.2 h 3.3 c 2.6,-0.2 5.1,0.9 6.7,3 1.5,2 2.3,4.9 2.3,8.6 0,3.7 -0.8,6.6 -2.3,8.7 -1.6,2.1 -4.2,3.2 -6.8,3 H 63.3 V 28.2 Z m 4.2,25.2 c 2.4,0.1 4.8,-0.5 6.9,-1.7 1.8,-1.1 3.3,-2.8 4.1,-4.7 1,-2.3 1.5,-4.7 1.4,-7.2 0,-4.3 -1.1,-7.6 -3.3,-10 -2.2,-2.4 -5.2,-3.5 -9.1,-3.5 H 56 v 1.6 h 0.5 c 0.8,0 1.5,0.1 2.2,0.5 0.6,0.3 0.9,1 0.9,2.1 v 18.6 c 0,1.2 -0.3,1.9 -0.9,2.3 -0.7,0.3 -1.4,0.5 -2.2,0.5 H 56 v 1.6 z"
   id="path2" />&#10;<path
   class="st1"
   d="m 29.7,24.7 c 7.4,0 14.8,-0.5 22.1,-1.3 C 52.2,17.2 51.9,11 50.9,4.8 50.7,3.3 49.5,2.1 48,1.8 41.8,0.6 35.6,0 29.2,0 28.4,6.7 28.1,13.4 28.1,20 v 3.1 0 l 0.8,0.1 c 0.4,0.1 0.7,0.3 0.7,0.7 0,0 0.1,0.8 0.1,0.8 z"
   id="path3" />&#10;<path
   class="st1"
   d="m 24,30.5 -0.8,-0.1 c -0.4,0 -0.6,-0.3 -0.7,-0.7 0,-0.3 -0.1,-0.8 -0.1,-0.8 v 0 C 15.2,28.8 8,29.2 0.9,30.1 2.1,36.9 9.9,52.2 22.3,58.8 23,53.7 24,41.3 24,33.4 Z"
   id="path4" />&#10;<path
   class="st1"
   d="m 29.6,28.9 v 0 C 36.8,28.8 44,29.2 51.1,30.1 49.9,36.9 42.2,52.2 29.7,58.8 29.1,53.7 28,41.4 28,33.4 v -2.9 0 l 0.7,-0.1 c 0.4,-0.1 0.6,-0.3 0.7,-0.7 0.1,-0.3 0.2,-0.8 0.2,-0.8 z"
   id="path5" />&#10;<path
   class="st1"
   d="m 12.5,14.6 c 0,0.1 0,0.1 0,0.2 0.1,0 0.2,0 0.2,-0.1 0.1,-0.1 0.1,-0.1 0.2,-0.2 -0.1,0.1 -0.3,0.1 -0.4,0.1"
   id="path6" />&#10;<path
   class="st1"
   d="m 14.8,17.7 c 0.2,-0.1 0.4,0 0.4,0.2 0,0.2 -0.3,0.3 -0.4,0.4 l -0.1,0.1 c 0,-0.1 0,-0.2 0,-0.3 0,-0.1 0,-0.1 -0.1,-0.1 -0.1,0 -0.6,0.4 -0.3,1.1 0,-0.2 0,-0.3 0.1,-0.4 0,-0.1 0.1,-0.1 0.1,-0.2 0.1,0.1 0.1,0.2 0.1,0.4 0,0.3 -0.2,0.3 -0.1,0.5 l 0.1,0.2 c 0,-0.1 0,-0.2 0,-0.2 0,-0.1 0.1,-0.2 0.1,-0.2 0,-0.1 0,-0.1 0,-0.2 0.1,0.1 0.2,0.2 0.1,0.4 0,0.1 0,0.3 -0.1,0.4 0,0.1 -0.1,0.2 -0.1,0.2 -0.1,0.5 -0.3,0.7 -0.6,0.7 -0.2,0 -0.3,0 -0.5,-0.1 0,0.6 -0.7,0.6 -0.7,0.9 0,0.1 0.1,0.2 0.1,0.3 0.1,0.1 0.4,0.2 0.5,0.3 -0.1,0 -0.3,0.1 -0.4,0.2 0.2,0.1 0.2,0.3 0.3,0.4 -0.2,-0.1 -0.3,0 -0.4,0 -0.1,0 0,0.2 -0.1,0.3 0,-0.1 -0.1,-0.2 -0.2,-0.2 -0.1,0 -0.3,0.1 -0.3,0.2 0,0.2 -0.1,0.2 -0.2,0.2 -0.1,0 -0.1,0.2 -0.1,0.3 -0.1,-0.1 -0.1,-0.2 -0.1,-0.3 -0.1,0 -0.1,-0.1 -0.1,-0.2 v 0 c 0,0 -0.1,0 -0.2,0 -0.1,0 -0.1,0.1 -0.1,0.2 0,-0.2 0,-0.3 0.1,-0.4 0,-0.1 0,-0.2 0.1,-0.2 0,0 0,0 0,-0.1 -0.1,0 -0.1,0 -0.2,-0.1 -0.1,0 -0.2,0 -0.2,0.1 0,-0.1 0.1,-0.2 0.2,-0.3 0.1,-0.2 0.3,-0.2 0.4,-0.1 0.1,0.1 0.2,0.1 0.3,0.1 0.1,0 0.2,-0.1 0.3,-0.2 l 0.1,-0.1 c 0,-0.1 0.1,-0.2 -0.1,-0.3 -0.1,-0.2 -0.4,-0.4 -0.4,-0.6 0,-0.3 0.1,-0.5 0.3,-0.7 h -0.1 c -0.2,0 -0.2,-0.1 -0.4,-0.1 -0.2,0 -0.3,0.1 -0.3,0.3 0,0.1 0,0.2 0.1,0.3 0.1,0.1 0.1,0.2 0.1,0.3 -0.1,-0.1 -0.3,-0.1 -0.5,0 0,0.1 -0.1,0.2 -0.2,0.3 -0.1,-0.2 -0.2,-0.3 -0.4,-0.2 0,0 -0.1,0 -0.1,0.1 0,0.1 0,0.2 -0.2,0.2 -0.2,0 -0.1,0 -0.1,0 -0.1,0.1 -0.1,0.1 -0.1,0.2 0,-0.1 0,-0.2 0.1,-0.3 0,-0.1 0,-0.2 0.1,-0.2 v 0 c -0.1,0.1 -0.2,0.1 -0.3,0 -0.1,0 -0.1,0 -0.2,0.2 0,-0.1 0,-0.3 0.1,-0.3 0,-0.1 0.1,-0.2 0.3,-0.2 0.2,0 0,0 0,0 v 0 c 0,0 -0.2,0 -0.2,-0.2 -0.1,0 -0.2,0 -0.2,0.1 -0.1,-0.2 0,-0.4 0.2,-0.4 0,0 0,0 0,0 0.1,0 0.1,-0.1 0.2,-0.1 0.1,0 0.2,0 0.2,0.1 0.1,0.2 0.3,0.3 0.5,0.2 0.1,0 0.2,-0.1 0.2,-0.2 0,-0.1 -0.2,-0.5 -0.2,-0.7 0.1,-0.2 0.3,-0.4 0.5,-0.5 0.6,0 0.8,0.3 0.9,0.3 0.1,0 0.2,0 0.2,-0.1 -0.3,-0.4 -0.5,-0.3 -0.8,-0.6 -0.1,-0.1 -0.2,-0.2 -0.2,-0.4 -0.2,0 -0.3,0.3 -0.4,0.4 0,-0.1 -0.1,-0.1 -0.2,-0.1 -0.1,0 -0.2,0.2 -0.3,0.3 0,-0.2 -0.1,-0.3 -0.4,-0.3 -0.2,0 -0.2,0 -0.3,0.1 -0.1,0.1 -0.2,0.2 -0.3,0.2 -0.1,0 -0.1,0.1 -0.2,0.2 -0.1,-0.2 0,-0.3 0,-0.3 0,-0.1 0,-0.2 0.1,-0.2 v 0 c -0.1,0 -0.2,0 -0.3,-0.1 -0.1,-0.1 -0.1,0 -0.2,0.1 0,-0.1 0.1,-0.2 0.2,-0.3 0,-0.1 0.2,-0.1 0.2,-0.1 0.1,0 0,0 0,0 -0.1,0 -0.1,-0.1 -0.1,-0.2 -0.1,-0.1 -0.2,0 -0.2,0 0.1,-0.1 0.3,-0.2 0.4,-0.1 0.1,0.1 0.3,0 0.3,0.1 0,0.1 0.2,0.2 0.5,0.2 0.5,0 1.2,-0.4 1.2,-0.8 -0.1,0 -0.1,0 -0.2,0 -0.3,0 -0.6,0.3 -0.8,0.3 0.1,-0.2 0,-0.3 0.1,-0.4 -0.2,0 -0.4,0.1 -0.5,0.1 0.1,-0.1 0.1,-0.2 0.2,-0.3 0,-0.1 0,-0.2 -0.3,-0.2 -0.1,0 -0.1,0 -0.2,0 -0.1,0 -0.3,0 -0.3,-0.2 -0.1,0 -0.2,0 -0.3,0.1 0,-0.1 0.2,-0.2 0.3,-0.2 0,-0.1 0.1,-0.1 0.2,-0.1 v 0 c 0,0 -0.2,0 -0.2,-0.2 0,-0.2 -0.1,-0.1 -0.3,0 0.2,-0.1 0.2,-0.1 0.3,-0.1 0.1,0 0.3,-0.1 0.3,0 v 0 c 0,-0.1 0,-0.2 0,-0.2 0,-0.1 0,-0.1 -0.2,-0.2 0.1,0 0.3,0 0.4,0.1 0.1,0 0.2,0.1 0.2,0.2 0,0.2 -0.2,0.3 0.2,0.5 0.2,0.1 0.3,0.1 0.5,0.2 0,0.1 0.2,0.1 0.3,0.1 -0.1,-0.1 0,-0.2 -0.2,-0.3 0.1,0 0.3,0 0.4,0.1 0,-0.2 0,-0.2 -0.1,-0.3 h 0.3 c 0.5,0.1 0.5,-0.2 0.6,-0.5 -0.2,0 -0.5,0.1 -0.7,0.2 0,-0.1 0,-0.2 0,-0.2 0,-0.1 0.1,-0.2 0.1,-0.2 0,0 0,0 0,0 H 12 c 0.1,0 0.2,-0.1 0.2,-0.3 -0.1,-0.2 -0.1,-0.2 -0.2,-0.2 l -0.2,0.1 c -0.1,0 -0.1,0.1 -0.1,0.2 0,0.1 0,-0.1 -0.1,-0.2 l -0.1,-0.1 v 0 c 0,-0.1 0,-0.2 0.1,-0.2 0,0 0,0 0.1,0 L 12,15 c 0.1,0 0.2,-0.1 0.2,-0.2 0,-0.1 0,-0.1 0.2,-0.1 h 0.3 c 0.2,0 0.5,-0.2 0.4,-0.4 0.1,0 0.2,0.3 0.2,0.4 0.1,0 0.3,0 0.4,-0.1 0,0.2 -0.1,0.3 -0.2,0.4 0.1,0 0.3,0 0.4,-0.1 -0.1,0.2 -0.1,0.3 -0.3,0.4 0.2,0.1 0.4,0.2 0.4,0.4 -0.2,-0.1 -0.2,0 -0.4,0 0.2,0.3 0.4,0.6 0.5,1 -0.1,-0.1 -0.2,-0.1 -0.3,-0.2 0.1,0.3 -0.1,0.6 0,0.7 -0.1,0 -0.2,-0.1 -0.2,-0.2 -0.1,0.2 -0.1,0.4 -0.1,0.6 -0.1,-0.1 -0.2,-0.1 -0.2,-0.2 -0.1,0.2 -0.2,0.4 -0.2,0.7 0,0.4 0.1,0.9 0.4,1.3 0.1,0.2 0.2,0.4 0.2,0.7 0.1,0.1 0.3,0.2 0.5,0.1 0.2,0 0.4,-0.2 0.3,-0.4 0,-0.4 -0.5,-0.6 -0.5,-1.3 0,-0.4 0.3,-0.7 0.3,-1 0,-0.3 -0.2,-0.1 -0.4,-0.2 0.2,0 0.4,-0.3 0.5,-0.3 0.1,0 0.2,0.1 0.2,0.2 0,0.1 0,0.2 -0.1,0.3 0.2,-0.1 0.3,-0.3 0.3,-0.6 0,-0.2 -0.3,-0.4 -0.2,-0.8 0,0 0,0 0,-0.1 0.1,0.4 0.7,0.5 0.7,0.9 0,0.4 -0.4,0.6 -0.5,0.8 m -3.6,-2.6 c 0,0.2 0,0.4 0.2,0.4 0.2,0 0.5,-0.1 0.7,-0.2 v 0.1 c -0.3,0.2 -0.6,0.4 -0.9,0.4 -0.2,0 -0.3,-0.1 -0.3,-0.3 0,-0.2 0.1,-0.2 0.3,-0.4 M 12.3,11.6 0.1,23.4 c 7.4,0.9 14.8,1.4 22.3,1.3 v 0 c 0,0 0,-0.4 0.1,-0.8 0,-0.4 0.3,-0.7 0.7,-0.7 l 0.7,-0.1 z"
   id="path7" />&#10;<path
   class="st1"
   d="m 18.2,2.5 c 0,0.1 0,0.2 0,0.2 0.1,0 0.2,0 0.3,-0.1 0.1,-0.1 0.1,-0.1 0.2,-0.2 -0.1,0 -0.3,0 -0.5,0.1"
   id="path8" />&#10;<path
   class="st1"
   d="m 6.8,3.3 c 0,0.1 0,0.2 0,0.2 C 6.9,3.5 7,3.5 7,3.4 7.1,3.4 7.1,3.3 7.2,3.2 7.1,3.3 6.9,3.3 6.8,3.3"
   id="path9" />&#10;<path
   class="st1"
   d="m 20.7,5.8 c 0.2,-0.1 0.5,0 0.5,0.2 0,0.2 -0.3,0.3 -0.4,0.4 0,0 -0.1,0.1 -0.1,0.1 0,-0.2 0,-0.3 0,-0.4 C 20.7,6 20.6,6 20.5,6 c -0.4,0.2 -0.6,0.6 -0.4,1 0,0 0,0.1 0.1,0.1 0,-0.2 0,-0.3 0.1,-0.4 0.1,-0.1 0.1,-0.1 0.1,-0.2 0.1,0.1 0.1,0.2 0.1,0.4 0,0.3 -0.2,0.4 -0.1,0.6 0,0.1 0,0.1 0.1,0.2 0,-0.1 0,-0.2 0,-0.3 0,-0.1 0.1,-0.2 0.1,-0.3 0,-0.1 0,-0.1 0,-0.2 0.1,0.1 0.2,0.3 0.2,0.4 0,0.1 0,0.3 -0.1,0.4 0,0.1 -0.1,0.2 -0.1,0.2 -0.1,0.5 -0.3,0.7 -0.6,0.7 -0.2,0 -0.3,0 -0.5,-0.1 0,0.6 -0.7,0.6 -0.7,1 0,0.1 0.1,0.2 0.2,0.3 0.1,0.1 0.4,0.2 0.5,0.3 -0.2,0 -0.3,0.1 -0.4,0.2 0.3,0.1 0.3,0.3 0.3,0.5 -0.3,-0.1 -0.4,0 -0.4,0 0,0 0,0.2 -0.1,0.3 0,-0.1 -0.1,-0.2 -0.2,-0.2 -0.1,0 -0.3,0.1 -0.3,0.3 0,0.1 -0.1,0.2 -0.2,0.3 0,0 0,0 0,0 -0.1,0.1 -0.1,0.2 -0.1,0.3 C 18,11.7 18,11.6 18,11.5 18,11.4 17.9,11.4 17.9,11.3 v 0 c -0.1,0.1 -0.1,0.1 -0.3,0.1 -0.1,0.1 -0.1,0.1 -0.2,0.2 0,-0.3 0,-0.3 0.1,-0.4 0,-0.1 0,-0.2 0.1,-0.2 0,0 0,0 0,-0.1 -0.1,0 -0.1,0 -0.2,-0.1 -0.1,0 -0.2,0.1 -0.2,0.2 0,-0.1 0.1,-0.3 0.2,-0.3 0.1,-0.2 0.3,-0.2 0.4,-0.1 0.1,0.1 0.2,0.1 0.4,0.1 0.1,0 0.2,-0.1 0.3,-0.2 0,0 0,-0.1 0.1,-0.1 0,-0.1 0.1,-0.2 -0.1,-0.4 C 18.3,9.8 18.1,9.6 18.1,9.3 18.1,9 18.2,8.8 18.4,8.6 H 18 c -0.2,0 -0.2,-0.1 -0.5,-0.1 -0.2,0 -0.3,0.2 -0.3,0.3 0,0.1 0,0.2 0.1,0.3 0.1,0.1 0.1,0.2 0.1,0.3 -0.1,-0.1 -0.3,-0.1 -0.5,0 0,0.1 -0.1,0.2 -0.2,0.3 -0.1,-0.2 -0.2,-0.3 -0.4,-0.2 -0.1,0 -0.1,0 -0.1,0.1 0,0.1 -0.1,0.2 -0.2,0.2 0,0 -0.1,0 -0.1,0 -0.1,0.1 -0.1,0.1 -0.2,0.2 0,-0.1 0,-0.2 0.1,-0.3 0,-0.1 0,-0.2 0.1,-0.2 0.1,0 0,0 0,0 -0.1,0.1 -0.3,0.1 -0.4,0 0,0 0,0 0,0 -0.1,0 -0.1,0.1 -0.2,0.2 0,-0.1 0,-0.3 0.1,-0.3 0,-0.1 0.1,-0.2 0.3,-0.2 0.2,0 0,0 0,0 v 0 c 0,0 -0.2,0 -0.2,-0.2 -0.1,0 -0.2,0 -0.2,0.1 0,-0.1 0.2,-0.2 0.3,-0.2 0,-0.1 0.1,-0.1 0.2,-0.1 0.1,0 0.2,0 0.2,0.1 0.1,0.2 0.4,0.3 0.6,0.2 0.1,0 0.2,-0.1 0.2,-0.2 0,0 0,0 0,0 0,-0.1 -0.2,-0.5 -0.2,-0.7 0.1,-0.3 0.3,-0.5 0.5,-0.5 0.7,0 0.8,0.3 1,0.3 0.2,0 0.2,0 0.3,-0.1 C 18.1,7.5 17.9,7.5 17.6,7.3 17.5,7.2 17.4,7 17.4,6.9 c -0.2,0 -0.4,0.3 -0.5,0.4 0,-0.1 -0.1,-0.1 -0.2,-0.1 -0.1,0 -0.3,0.2 -0.3,0.4 0,-0.2 -0.1,-0.4 -0.4,-0.4 -0.1,0 -0.2,0 -0.3,0.1 -0.1,0.1 -0.2,0.2 -0.3,0.2 -0.1,0 -0.1,0.1 -0.2,0.3 -0.1,-0.2 0,-0.3 0,-0.4 0,-0.1 0,-0.2 0.1,-0.3 v 0 c -0.1,0 -0.2,0 -0.3,0 -0.1,0 -0.1,0 -0.2,0.1 0,-0.1 0.1,-0.3 0.2,-0.3 0.1,-0.1 0.2,-0.1 0.3,-0.1 v 0 c -0.1,0 -0.1,-0.1 -0.1,-0.2 -0.1,-0.1 -0.2,0 -0.2,0 0.1,-0.1 0.3,-0.2 0.4,-0.1 0.1,0.1 0.3,0 0.3,0.2 0,0.2 0.2,0.2 0.5,0.2 0.5,0 1.3,-0.5 1.3,-0.8 -0.1,0 -0.2,0 -0.2,0 -0.3,0 -0.6,0.3 -0.9,0.3 0.1,-0.2 0,-0.3 0.1,-0.4 -0.2,0 -0.4,0.1 -0.6,0.1 0.1,-0.1 0.2,-0.2 0.2,-0.3 0,-0.1 0,-0.2 -0.3,-0.2 -0.1,0 -0.1,0 -0.2,0 -0.1,0 -0.3,0 -0.3,-0.2 -0.1,0 -0.2,0 -0.3,0.1 0,-0.1 0.2,-0.2 0.3,-0.2 0,-0.1 0.1,-0.1 0.2,-0.1 0,0 0,0 0,-0.1 0,-0.1 -0.2,0 -0.2,-0.2 0,-0.2 -0.1,-0.1 -0.3,0 0.2,-0.2 0.3,-0.1 0.3,-0.1 0.1,-0.1 0.2,-0.1 0.3,0 0,0 0,0 0.1,0 0,-0.1 0,-0.2 0,-0.3 0,-0.1 -0.1,-0.2 -0.2,-0.2 0.1,0 0.3,0 0.4,0.1 0.1,0 0.2,0.1 0.2,0.2 0,0.2 -0.2,0.3 0.2,0.6 0.2,0.1 0.3,0.2 0.5,0.2 0.2,0.1 0.3,0.1 0.5,0.1 -0.1,-0.1 0,-0.2 -0.2,-0.3 0.1,0 0.3,0 0.4,0.1 0,-0.2 0,-0.2 -0.1,-0.3 0.1,0 0.2,0 0.3,0 0.5,0 0.5,-0.2 0.6,-0.5 -0.3,0 -0.5,0.1 -0.7,0.2 0,-0.1 0,-0.2 0,-0.2 0,-0.1 0.1,-0.2 0.2,-0.2 0,0 0,0 0,0 H 18 c 0.1,0 0.3,-0.1 0.2,-0.4 C 18.2,3.8 18.1,3.7 18,3.7 L 17.8,3.8 C 17.7,3.8 17.7,3.9 17.7,4 L 17.6,3.8 c 0,0 0,-0.1 -0.1,-0.1 v 0 c 0,-0.1 0,-0.2 0.1,-0.2 0,0 0,0 0,0 l 0.3,-0.1 c 0.1,0 0.2,-0.1 0.3,-0.2 0,-0.1 0.1,-0.1 0.2,-0.1 h 0.3 c 0.2,0 0.5,-0.2 0.4,-0.4 0.2,0 0.2,0.3 0.2,0.4 0.1,0 0.3,0 0.4,-0.1 0,0.2 -0.1,0.3 -0.2,0.5 0.1,0 0.3,0 0.4,-0.1 -0.1,0.2 -0.1,0.3 -0.3,0.5 0.2,0.1 0.4,0.2 0.5,0.5 -0.2,-0.1 -0.3,0 -0.4,0 0.2,0.3 0.4,0.6 0.5,1 C 20.1,5.3 20,5.3 19.8,5.2 19.9,5.5 19.7,5.8 19.8,5.9 19.7,5.8 19.6,5.8 19.5,5.7 19.4,5.9 19.4,6.1 19.4,6.4 19.3,6.2 19.2,6 19.1,5.7 c -0.2,0.2 -0.2,0.4 -0.2,0.7 0,0.5 0.2,0.9 0.4,1.3 0.1,0.2 0.2,0.5 0.2,0.7 0,0.2 0.2,0.4 0.4,0.4 0.2,0 0.4,-0.2 0.4,-0.4 0,0 0,0 0,0 0,-0.4 -0.5,-0.7 -0.5,-1.4 0,-0.5 0.4,-0.7 0.4,-1 0,-0.3 -0.2,-0.1 -0.4,-0.2 0.2,0 0.4,-0.3 0.6,-0.3 0.1,0 0.2,0.1 0.2,0.2 0,0 0,0 0,0 0,0.1 0,0.2 -0.1,0.3 0.2,-0.2 0.3,-0.4 0.3,-0.6 0,-0.2 -0.3,-0.4 -0.2,-0.8 0,0 0,0 0,-0.1 0.1,0.5 0.7,0.6 0.7,1 0,0.4 -0.4,0 -0.6,0.3 M 17,3 c -0.1,0.2 0,0.5 0.2,0.5 0.2,0 0.5,-0.1 0.7,-0.2 L 18,3.4 c -0.3,0.2 -0.6,0.4 -1,0.5 -0.1,0 -0.3,-0.1 -0.3,-0.2 0,0 0,0 0,-0.1 C 16.7,3.3 16.8,3.2 17,3 M 9.2,6.5 c 0.2,-0.1 0.4,0 0.4,0.2 0,0.2 -0.3,0.3 -0.4,0.4 0,0 -0.1,0.1 -0.1,0.1 0,-0.1 0,-0.3 0,-0.4 C 9.1,6.7 9,6.6 8.9,6.6 8.5,6.8 8.3,7.2 8.5,7.6 c 0,0 0,0.1 0.1,0.1 0,-0.2 0,-0.4 0.1,-0.5 C 8.7,7.1 8.8,7.1 8.8,7 8.9,7.1 8.9,7.2 8.9,7.4 8.9,7.7 8.7,7.7 8.8,8 L 8.9,8.2 C 8.9,8.1 8.9,8 8.9,7.9 8.9,7.8 9,7.7 9,7.6 9,7.5 9,7.5 9,7.4 9.1,7.5 9.2,7.7 9.2,7.8 9.2,7.9 9.2,8.1 9.1,8.2 9.1,8.3 9,8.3 9,8.4 8.9,8.9 8.7,9.1 8.4,9.1 8.2,9.1 8.1,9.1 7.9,9 c 0,0.6 -0.7,0.6 -0.7,1 0,0.1 0.1,0.2 0.1,0.3 0.1,0.1 0.4,0.2 0.5,0.3 -0.1,0 -0.3,0.1 -0.4,0.2 0.2,0.1 0.2,0.3 0.3,0.4 -0.2,-0.1 -0.4,0 -0.4,0 -0.1,0 0,0.2 -0.1,0.3 0,-0.1 -0.1,-0.2 -0.2,-0.2 -0.1,0 -0.3,0.2 -0.3,0.2 0,0.1 -0.1,0.2 -0.2,0.2 0,0 0,0 0,0 C 6.4,11.8 6.4,11.9 6.4,12 6.3,11.9 6.3,11.8 6.3,11.7 6.3,11.6 6.2,11.6 6.2,11.5 v 0 c -0.1,0.1 -0.2,0.1 -0.3,0.1 -0.1,0 -0.1,0.1 -0.1,0.2 0,-0.2 0,-0.3 0.1,-0.4 0,-0.1 0,-0.2 0.1,-0.3 0,0 0,0 0,0 v 0 c -0.1,0 -0.2,0 -0.2,-0.1 -0.1,0 -0.2,0.1 -0.2,0.1 0,-0.1 0.1,-0.3 0.2,-0.3 0.1,-0.2 0.3,-0.2 0.4,-0.1 0.1,0.1 0.2,0.1 0.3,0.1 0.1,0 0.2,-0.1 0.3,-0.2 0,0 0,-0.1 0.1,-0.1 C 6.9,10.4 7,10.3 6.8,10.2 6.6,10 6.4,9.8 6.4,9.6 6.4,9.3 6.5,9.1 6.7,8.9 H 6.6 C 6.4,8.9 6.4,8.8 6.1,8.8 5.9,8.8 5.8,8.9 5.8,9.1 c 0,0 0,0 0,0 0,0.1 0,0.2 0.1,0.3 C 5.9,9.5 6,9.6 6,9.7 5.9,9.6 5.7,9.6 5.5,9.7 5.5,9.8 5.4,9.9 5.3,10 5.3,9.8 5.1,9.7 4.9,9.8 c -0.1,0 -0.1,0 -0.1,0.1 0,0.1 -0.1,0.2 -0.2,0.2 0,0 0,0 0,0 0,0 -0.1,0 -0.1,0 -0.1,0 -0.1,0.1 -0.2,0.2 0,-0.1 0,-0.2 0,-0.3 0,-0.1 0,-0.2 0.1,-0.2 0.1,0 0,0 0,0 C 4.3,10 4.1,10 4,10 3.9,10 3.9,10.1 3.8,10.2 3.7,10 3.8,9.9 4,9.7 4,9.6 4.1,9.5 4.3,9.5 c 0.1,0 0,0 0,0 v 0 c 0,0 -0.2,0 -0.2,-0.2 C 4,9.3 3.9,9.3 3.9,9.4 3.9,9.3 4,9.2 4.2,9.2 4.2,9.1 4.4,9.1 4.4,9.1 c 0.1,0 0.2,0 0.2,0.1 0.1,0.2 0.3,0.3 0.5,0.2 0.1,0 0.2,-0.1 0.2,-0.2 v 0 C 5.3,9.1 5.1,8.7 5.1,8.5 5.2,8.2 5.4,8 5.6,8 6.2,8 6.4,8.3 6.5,8.3 6.7,8.3 6.7,8.3 6.8,8.2 6.5,7.8 6.3,7.8 6,7.6 5.9,7.5 5.8,7.3 5.8,7.2 5.6,7.2 5.5,7.5 5.4,7.6 5.4,7.5 5.3,7.5 5.2,7.5 5.1,7.5 5,7.7 4.9,7.8 4.9,7.6 4.8,7.5 4.6,7.5 4.4,7.5 4.4,7.5 4.3,7.6 4.2,7.7 4.1,7.8 4,7.7 3.9,7.8 3.8,7.8 3.8,7.9 3.7,7.7 3.8,7.6 3.8,7.6 3.8,7.5 3.8,7.4 3.9,7.4 v 0 C 3.8,7.4 3.7,7.4 3.6,7.3 3.5,7.2 3.5,7.3 3.4,7.4 3.4,7.3 3.5,7.2 3.6,7.1 3.7,7 3.8,7 3.9,7 V 7 C 3.8,7 3.8,6.9 3.8,6.8 3.7,6.7 3.6,6.8 3.6,6.8 3.7,6.7 3.9,6.6 4,6.7 4.1,6.8 4.3,6.7 4.3,6.8 4.3,6.9 4.5,7 4.8,7 5.3,7 6.1,6.6 6,6.2 H 5.8 C 5.5,6.2 5.2,6.5 5,6.5 5.1,6.4 5,6.2 5.1,6.1 4.9,6.1 4.7,6.2 4.6,6.2 4.7,6.1 4.7,6 4.8,5.9 4.8,5.8 4.8,5.7 4.5,5.7 4.4,5.7 4.4,5.7 4.3,5.7 4.2,5.7 4,5.7 4,5.5 3.9,5.5 3.8,5.5 3.7,5.6 3.7,5.5 3.9,5.4 4,5.4 3.9,5.3 3.9,5.2 4,5.1 4.1,5 4.2,5 4.3,5.1 v 0 c 0,0 0,0 0,-0.1 C 4.3,4.9 4.1,5 4.1,4.8 4.1,4.6 4,4.7 3.8,4.8 4,4.6 4.1,4.7 4.1,4.7 c 0.1,0 0.3,0 0.3,0 0,0 0,0 0,0 0,-0.1 0,-0.2 0,-0.3 0,-0.2 0,-0.2 -0.1,-0.2 0.1,0 0.3,0 0.4,0.1 0.1,0 0.2,0.1 0.2,0.2 0,0.2 -0.2,0.3 0.2,0.6 C 5.3,5.2 5.4,5.2 5.6,5.3 5.8,5.4 5.9,5.4 6.1,5.4 6,5.3 6.1,5.2 5.9,5.1 6,5.1 6.2,5.1 6.3,5.2 6.3,5 6.3,5 6.2,4.9 H 6.5 C 7,4.9 7,4.7 7.1,4.4 6.9,4.4 6.6,4.5 6.4,4.6 c 0,-0.1 0,-0.2 0,-0.2 0,-0.1 0.1,-0.2 0.1,-0.2 0,0 0,0 0,0 H 6.6 C 6.7,4.2 6.8,4.1 6.8,3.9 6.7,3.7 6.7,3.7 6.6,3.7 L 6.4,3.8 C 6.3,3.8 6.3,3.9 6.3,4 c 0,0 0,-0.2 0,-0.2 0,0 0,-0.1 -0.1,-0.1 v 0 c 0,-0.1 0,-0.2 0.1,-0.2 0,0 0,0 0,0 L 6.6,3.4 C 6.7,3.4 6.8,3.3 6.8,3.2 6.8,3.1 6.9,3.1 7,3.1 H 7.3 C 7.5,3.1 7.8,2.9 7.7,2.7 7.9,2.7 7.9,3 7.9,3.1 8,3.1 8.2,3.1 8.3,3 8.3,3.2 8.2,3.3 8.1,3.4 8.2,3.4 8.4,3.3 8.5,3.3 8.5,3.5 8.4,3.6 8.2,3.8 8.4,3.9 8.6,4 8.7,4.3 8.5,4.2 8.4,4.3 8.3,4.3 8.5,4.6 8.7,4.9 8.8,5.3 8.7,5.2 8.6,5.2 8.4,5.1 8.5,5.4 8.4,5.7 8.4,5.8 8.3,5.8 8.2,5.7 8.2,5.6 8.1,5.8 8.1,6 8.1,6.2 8,6.1 7.9,6.1 7.9,6 7.8,6.2 7.7,6.4 7.7,6.7 c 0,0.5 0.1,0.9 0.4,1.3 0.1,0.2 0.2,0.5 0.2,0.7 0,0.2 0.2,0.4 0.4,0.4 0.2,0 0.4,-0.2 0.4,-0.4 0,0 0,0 0,0 C 9.1,8.3 8.6,8 8.6,7.4 8.6,6.9 8.9,6.7 9,6.4 9,6.1 8.8,6.3 8.6,6.2 8.8,6.2 9,5.9 9.2,5.9 9.4,5.9 9.4,6 9.4,6.1 9.4,6.2 9.4,6.3 9.3,6.4 9.5,6.3 9.6,6.1 9.6,5.8 9.6,5.6 9.3,5.4 9.4,5 c 0,-0.1 0,0 0,-0.1 0.1,0.4 0.7,0.5 0.7,0.9 0,0.4 -0.7,0.3 -0.9,0.7 M 5.6,3.7 c 0,0.2 0,0.5 0.2,0.5 C 6,4.2 6.3,4.1 6.5,4 V 4 C 6.2,4.2 5.9,4.4 5.5,4.4 5.4,4.4 5.2,4.3 5.2,4.2 c 0,0 0,0 0,-0.1 C 5.2,4 5.4,3.9 5.6,3.7 M 24,19.3 C 24,12.8 23.6,6.4 22.9,0 16.6,0 10.3,0.6 4.1,1.9 2.6,2.2 1.4,3.4 1.2,4.9 0.4,9.6 0,14.4 0,19.2 c 0,0.6 0,0.5 0,1.2 1.2,-1.2 12.4,-12 12.4,-12 L 24,19.9 v -0.6"
   id="path10" />&#10;</svg>
